<?xml version="1.0" encoding="utf-8" standalone="no"?>
<!DOCTYPE svg PUBLIC "-//W3C//DTD SVG 1.1//EN"
  "http://www.w3.org/Graphics/SVG/1.1/DTD/svg11.dtd">
<svg xmlns:xlink="http://www.w3.org/1999/xlink" width="540pt" height="46.8pt" viewBox="0 0 540 46.8" xmlns="http://www.w3.org/2000/svg" version="1.1">
 <metadata>
  <rdf:RDF xmlns:dc="http://purl.org/dc/elements/1.1/" xmlns:cc="http://creativecommons.org/ns#" xmlns:rdf="http://www.w3.org/1999/02/22-rdf-syntax-ns#">
   <cc:Work>
    <dc:type rdf:resource="http://purl.org/dc/dcmitype/StillImage"/>
    <dc:date>2026-09-24T18:22:27.476635</dc:date>
    <dc:format>image/svg+xml</dc:format>
    <dc:creator>
     <cc:Agent>
      <dc:title>Matplotlib v3.10.9, https://matplotlib.org/</dc:title>
     </cc:Agent>
    </dc:creator>
   </cc:Work>
  </rdf:RDF>
 </metadata>
 <defs>
  <style type="text/css">*{stroke-linejoin: round; stroke-linecap: butt}</style>
 </defs>
 <g id="figure_1">
  <g id="patch_1">
   <path d="M 0 46.8 
L 540 46.8 
L 540 0 
L 0 0 
z
" style="fill: #ffffff"/>
  </g>
  <g id="legend_1">
   <g id="line2d_1">
    <path d="M 83.5 22 
L 93.5 22 
L 103.5 22 
" style="fill: none; stroke: #e4b7b4; stroke-width: 1.6; stroke-linecap: square"/>
    <defs>
     <path id="mc83f530364" d="M 0 2.5 
C 0.663008 2.5 1.29895 2.236584 1.767767 1.767767 
C 2.236584 1.29895 2.5 0.663008 2.5 0 
C 2.5 -0.663008 2.236584 -1.29895 1.767767 -1.767767 
C 1.29895 -2.236584 0.663008 -2.5 0 -2.5 
C -0.663008 -2.5 -1.29895 -2.236584 -1.767767 -1.767767 
C -2.236584 -1.29895 -2.5 -0.663008 -2.5 0 
C -2.5 0.663008 -2.236584 1.29895 -1.767767 1.767767 
C -1.29895 2.236584 -0.663008 2.5 0 2.5 
z
" style="stroke: #222222"/>
    </defs>
    <g>
     <use xlink:href="#mc83f530364" x="93.5" y="22" style="fill: #ffffff; stroke: #222222"/>
    </g>
   </g>
   <g id="text_1">
    <!-- $W_p=0.25$ -->
    <g transform="translate(111.5 25.5)">
     <text>
      <tspan x="0" y="-0.125" style="font-style: italic; font-size: 10px; font-family: 'STIXGeneral'">W</tspan>
      <tspan x="8.329987" y="1.196875" style="font-style: italic; font-size: 7px; font-family: 'STIXGeneral'">p</tspan>
      <tspan x="13.742604" y="-0.125" style="font-size: 10px; font-family: 'STIXGeneral'">=</tspan>
      <tspan x="22.036592" y="-0.125" style="font-size: 10px; font-family: 'STIXGeneral'">0</tspan>
      <tspan x="27.036577" y="-0.125" style="font-size: 10px; font-family: 'STIXGeneral'">.</tspan>
      <tspan x="29.536562" y="-0.125" style="font-size: 10px; font-family: 'STIXGeneral'">2</tspan>
      <tspan x="34.536546" y="-0.125" style="font-size: 10px; font-family: 'STIXGeneral'">5</tspan>
     </text>
    </g>
   </g>
   <g id="line2d_2">
    <path d="M 171.1 22 
L 181.1 22 
L 191.1 22 
" style="fill: none; stroke: #d17d76; stroke-width: 1.6; stroke-linecap: square"/>
    <defs>
     <path id="m6a4000509a" d="M 0 2.5 
C 0.663008 2.5 1.29895 2.236584 1.767767 1.767767 
C 2.236584 1.29895 2.5 0.663008 2.5 0 
C 2.5 -0.663008 2.236584 -1.29895 1.767767 -1.767767 
C 1.29895 -2.236584 0.663008 -2.5 0 -2.5 
C -0.663008 -2.5 -1.29895 -2.236584 -1.767767 -1.767767 
C -2.236584 -1.29895 -2.5 -0.663008 -2.5 0 
C -2.5 0.663008 -2.236584 1.29895 -1.767767 1.767767 
C -1.29895 2.236584 -0.663008 2.5 0 2.5 
z
" style="stroke: #222222"/>
    </defs>
    <g>
     <use xlink:href="#m6a4000509a" x="181.1" y="22" style="fill: #d7d7d7; stroke: #222222"/>
    </g>
   </g>
   <g id="text_2">
    <!-- $W_p=1$ -->
    <g transform="translate(199.1 25.5)">
     <text>
      <tspan x="0" y="-0.234375" style="font-style: italic; font-size: 10px; font-family: 'STIXGeneral'">W</tspan>
      <tspan x="8.329987" y="1.0875" style="font-style: italic; font-size: 7px; font-family: 'STIXGeneral'">p</tspan>
      <tspan x="13.742604" y="-0.234375" style="font-size: 10px; font-family: 'STIXGeneral'">=</tspan>
      <tspan x="22.036592" y="-0.234375" style="font-size: 10px; font-family: 'STIXGeneral'">1</tspan>
     </text>
    </g>
   </g>
   <g id="line2d_3">
    <path d="M 246.2 22 
L 256.2 22 
L 266.2 22 
" style="fill: none; stroke: #b7221a; stroke-width: 1.6; stroke-linecap: square"/>
    <defs>
     <path id="m54a0209b3c" d="M 0 2.5 
C 0.663008 2.5 1.29895 2.236584 1.767767 1.767767 
C 2.236584 1.29895 2.5 0.663008 2.5 0 
C 2.5 -0.663008 2.236584 -1.29895 1.767767 -1.767767 
C 1.29895 -2.236584 0.663008 -2.5 0 -2.5 
C -0.663008 -2.5 -1.29895 -2.236584 -1.767767 -1.767767 
C -2.236584 -1.29895 -2.5 -0.663008 -2.5 0 
C -2.5 0.663008 -2.236584 1.29895 -1.767767 1.767767 
C -1.29895 2.236584 -0.663008 2.5 0 2.5 
z
" style="stroke: #222222"/>
    </defs>
    <g>
     <use xlink:href="#m54a0209b3c" x="256.2" y="22" style="fill: #a0a0a0; stroke: #222222"/>
    </g>
   </g>
   <g id="text_3">
    <!-- $W_p=2$ -->
    <g transform="translate(274.2 25.5)">
     <text>
      <tspan x="0" y="-0.234375" style="font-style: italic; font-size: 10px; font-family: 'STIXGeneral'">W</tspan>
      <tspan x="8.329987" y="1.0875" style="font-style: italic; font-size: 7px; font-family: 'STIXGeneral'">p</tspan>
      <tspan x="13.742604" y="-0.234375" style="font-size: 10px; font-family: 'STIXGeneral'">=</tspan>
      <tspan x="22.036592" y="-0.234375" style="font-size: 10px; font-family: 'STIXGeneral'">2</tspan>
     </text>
    </g>
   </g>
   <g id="line2d_4">
    <path d="M 321.3 22 
L 331.3 22 
L 341.3 22 
" style="fill: none; stroke: #942019; stroke-width: 1.6; stroke-linecap: square"/>
    <defs>
     <path id="m7e1ddeed69" d="M 0 2.5 
C 0.663008 2.5 1.29895 2.236584 1.767767 1.767767 
C 2.236584 1.29895 2.5 0.663008 2.5 0 
C 2.5 -0.663008 2.236584 -1.29895 1.767767 -1.767767 
C 1.29895 -2.236584 0.663008 -2.5 0 -2.5 
C -0.663008 -2.5 -1.29895 -2.236584 -1.767767 -1.767767 
C -2.236584 -1.29895 -2.5 -0.663008 -2.5 0 
C -2.5 0.663008 -2.236584 1.29895 -1.767767 1.767767 
C -1.29895 2.236584 -0.663008 2.5 0 2.5 
z
" style="stroke: #222222"/>
    </defs>
    <g>
     <use xlink:href="#m7e1ddeed69" x="331.3" y="22" style="fill: #6e6e6e; stroke: #222222"/>
    </g>
   </g>
   <g id="text_4">
    <!-- $W_p=5$ -->
    <g transform="translate(349.3 25.5)">
     <text>
      <tspan x="0" y="-0.125" style="font-style: italic; font-size: 10px; font-family: 'STIXGeneral'">W</tspan>
      <tspan x="8.329987" y="1.196875" style="font-style: italic; font-size: 7px; font-family: 'STIXGeneral'">p</tspan>
      <tspan x="13.742604" y="-0.125" style="font-size: 10px; font-family: 'STIXGeneral'">=</tspan>
      <tspan x="22.036592" y="-0.125" style="font-size: 10px; font-family: 'STIXGeneral'">5</tspan>
     </text>
    </g>
   </g>
   <g id="line2d_5">
    <path d="M 396.4 22 
L 406.4 22 
L 416.4 22 
" style="fill: none; stroke: #65120e; stroke-width: 1.6; stroke-linecap: square"/>
    <defs>
     <path id="m1650478e4e" d="M 0 2.5 
C 0.663008 2.5 1.29895 2.236584 1.767767 1.767767 
C 2.236584 1.29895 2.5 0.663008 2.5 0 
C 2.5 -0.663008 2.236584 -1.29895 1.767767 -1.767767 
C 1.29895 -2.236584 0.663008 -2.5 0 -2.5 
C -0.663008 -2.5 -1.29895 -2.236584 -1.767767 -1.767767 
C -2.236584 -1.29895 -2.5 -0.663008 -2.5 0 
C -2.5 0.663008 -2.236584 1.29895 -1.767767 1.767767 
C -1.29895 2.236584 -0.663008 2.5 0 2.5 
z
" style="stroke: #222222"/>
    </defs>
    <g>
     <use xlink:href="#m1650478e4e" x="406.4" y="22" style="fill: #222222; stroke: #222222"/>
    </g>
   </g>
   <g id="text_5">
    <!-- $W_p=10$ -->
    <g transform="translate(424.4 25.5)">
     <text>
      <tspan x="0" y="-0.234375" style="font-style: italic; font-size: 10px; font-family: 'STIXGeneral'">W</tspan>
      <tspan x="8.329987" y="1.0875" style="font-style: italic; font-size: 7px; font-family: 'STIXGeneral'">p</tspan>
      <tspan x="13.742604" y="-0.234375" style="font-size: 10px; font-family: 'STIXGeneral'">=</tspan>
      <tspan x="22.036592" y="-0.234375" style="font-size: 10px; font-family: 'STIXGeneral'">1</tspan>
      <tspan x="27.036577" y="-0.234375" style="font-size: 10px; font-family: 'STIXGeneral'">0</tspan>
     </text>
    </g>
   </g>
  </g>
 </g>
</svg>
